# Blender v2.80 (sub 72) OBJ File: 'diamond.blend'
# www.blender.org
mtllib diamond.mtl
o Diamond
v -0.000000 1.757839 -1.246856
v -0.000000 -0.005482 -1.246856
v -1.246856 -0.005483 0.000000
v -1.246856 1.757839 0.000001
v 1.246856 -0.005483 -0.000000
v 1.246856 1.757839 -0.000000
v 0.000000 1.757839 1.246857
v 0.000000 -0.005483 1.246856
vt 0.990000 0.745000
vt 0.745000 0.745000
vt 0.745000 0.500000
vt 0.990000 0.500000
vt 0.500000 0.745000
vt 0.255000 0.745000
vt 0.255000 0.500000
vt 0.500000 0.500000
vt 0.500000 0.990000
vt 0.745000 0.990000
vt 0.010000 0.745000
vt 0.010000 0.500000
vt 0.500000 0.255000
vt 0.745000 0.255000
vn -0.0000 0.5774 -0.8165
vn -0.0000 -0.5774 -0.8165
vn -0.8165 -0.5774 0.0000
vn -0.8165 0.5774 0.0000
vn 0.8165 -0.5774 -0.0000
vn 0.8165 0.5774 -0.0000
vn 0.0000 0.5774 0.8165
vn 0.0000 -0.5774 0.8165
usemtl default.003
s 1
f 1/1/1 2/2/2 3/3/3 4/4/4
f 5/5/5 6/6/6 7/7/7 8/8/8
f 5/5/5 8/8/8 3/3/3 2/2/2
f 6/9/6 5/5/5 2/2/2 1/10/1
f 7/7/7 6/6/6 1/11/1 4/12/4
f 8/8/8 7/13/7 4/14/4 3/3/3
