# Blender v2.80 (sub 72) OBJ File: 'hexagon.blend'
# www.blender.org
mtllib hexagon.mtl
o Hexagon
v -0.603009 1.203773 0.160048
v -0.603009 2.352759 0.160048
v -1.405766 1.203773 0.160048
v -0.603009 2.352759 -0.203953
v -1.405766 1.203773 -0.203954
v -0.603009 1.203773 -0.203954
v -0.603009 0.011673 0.160047
v -0.603009 0.011673 -0.203954
v 0.614881 1.203773 0.160048
v 0.614881 0.011673 0.160047
v 1.405766 1.203773 0.160048
v 0.614881 0.011673 -0.203954
v 1.405766 1.203773 -0.203954
v 0.614881 1.203773 -0.203954
v 0.614881 2.352759 0.160048
v 0.614881 2.352759 -0.203953
vt 0.277400 0.881934
vt 0.428718 0.777777
vt 0.350171 0.987655
vt 0.010000 0.240220
vt 0.010000 0.016125
vt 0.068197 0.016125
vt 0.068197 0.240220
vt 0.627565 0.316250
vt 0.708250 0.525315
vt 0.555877 0.422708
vt 0.120404 0.990000
vt 0.336780 0.248875
vt 0.566559 0.248875
vt 0.566559 0.307072
vt 0.336780 0.307072
vt 0.397786 0.316250
vt 0.166996 0.721542
vt 0.010000 0.829607
vt 0.095301 0.617385
vt 0.761276 0.248875
vt 0.990000 0.248875
vt 0.990000 0.307072
vt 0.761276 0.307072
vt 0.376488 0.689102
vt 0.289025 0.477761
vt 0.447116 0.584219
vt 0.318314 0.617385
vt 0.010000 0.657950
vt 0.010000 0.434936
vt 0.068197 0.434936
vt 0.068197 0.657950
vt 0.599489 0.686826
vn 0.0000 -0.0000 1.0000
vn -0.3066 0.5883 0.7482
vn -0.6362 0.0055 0.7715
vn -0.3066 0.5883 -0.7482
vn -0.6362 0.0054 -0.7715
vn 0.0000 0.0000 -1.0000
vn -0.3109 -0.5842 0.7497
vn -0.3109 -0.5842 -0.7497
vn 0.3126 -0.5825 0.7503
vn 0.6380 0.0055 0.7700
vn 0.3126 -0.5825 -0.7503
vn 0.6380 0.0055 -0.7700
vn 0.3084 0.5867 0.7488
vn 0.3084 0.5867 -0.7488
usemtl default.002
s 1
f 1/1/1 2/2/2 3/3/3
f 4/4/4 5/5/5 3/6/3 2/7/2
f 5/8/5 4/9/4 6/10/6
f 1/1/1 3/3/3 7/11/7
f 5/12/5 8/13/8 7/14/7 3/15/3
f 8/16/8 5/8/5 6/10/6
f 9/17/1 10/18/9 11/19/10
f 12/20/11 13/21/12 11/22/10 10/23/9
f 13/24/12 12/25/11 14/26/6
f 9/17/1 11/19/10 15/27/13
f 13/28/12 16/29/14 15/30/13 11/31/10
f 16/32/14 13/24/12 14/26/6
f 10/18/9 9/17/1 1/1/1 7/11/7
f 8/13/8 12/20/11 10/23/9 7/14/7
f 12/25/11 8/16/8 6/10/6 14/26/6
f 15/27/13 2/2/2 1/1/1 9/17/1
f 16/29/14 4/4/4 2/7/2 15/30/13
f 16/32/14 14/26/6 6/10/6 4/9/4
