# Blender v2.80 (sub 72) OBJ File: 'octagon.blend'
# www.blender.org
mtllib octagon.mtl
o Octagon
v -1.226876 0.359979 -0.624640
v -0.516366 0.359979 -0.624640
v -0.516366 0.359979 -1.274346
v -0.516366 -0.003666 -1.274346
v -1.226876 -0.003667 -0.624640
v -0.516366 -0.003667 -0.624640
v 0.516366 0.359979 -0.624640
v 0.516366 0.359979 -1.274346
v 0.516366 -0.003666 -1.274346
v 0.516366 -0.003667 -0.624640
v 1.226876 0.359979 -0.624640
v 1.226876 -0.003667 -0.624640
v -1.226876 0.359978 0.493219
v -0.516366 0.359978 0.493219
v -1.226876 -0.003667 0.493219
v -0.516366 -0.003667 0.493219
v 0.516366 0.359978 0.493219
v 0.516366 -0.003667 0.493219
v 1.226876 0.359978 0.493219
v 1.226876 -0.003667 0.493219
v -0.516366 0.359978 1.130766
v -0.516366 -0.003667 1.130766
v 0.516366 0.359978 1.130766
v 0.516366 -0.003667 1.130766
vt 0.775268 0.574832
vt 0.775268 0.435104
vt 0.903039 0.435104
vt 0.985116 0.800661
vt 0.985117 0.990000
vt 0.913603 0.990000
vt 0.913602 0.800661
vt 0.010000 0.850272
vt 0.137770 0.850272
vt 0.137770 0.990000
vt 0.775268 0.232008
vt 0.903039 0.232008
vt 0.985115 0.597565
vt 0.913602 0.597565
vt 0.010000 0.647176
vt 0.137770 0.647176
vt 0.775268 0.092280
vt 0.985116 0.408226
vt 0.913602 0.408226
vt 0.137770 0.507448
vt 0.555432 0.574832
vt 0.555432 0.435104
vt 0.010000 0.010000
vt 0.229837 0.010000
vt 0.229837 0.081514
vt 0.010000 0.081514
vt 0.357607 0.990000
vt 0.357607 0.850272
vt 0.555432 0.232008
vt 0.357607 0.647176
vt 0.555432 0.092280
vt 0.985117 0.188390
vt 0.913603 0.188389
vt 0.357607 0.507448
vt 0.430053 0.435104
vt 0.417570 0.010000
vt 0.417570 0.081514
vt 0.482986 0.850272
vt 0.430053 0.232008
vt 0.620666 0.010000
vt 0.620666 0.081514
vt 0.482986 0.647176
vt 0.808399 0.010000
vt 0.808399 0.081514
vn -0.6178 0.7377 -0.2722
vn 0.0000 1.0000 0.0000
vn -0.2468 0.7315 -0.6356
vn -0.2468 -0.7315 -0.6356
vn -0.6178 -0.7377 -0.2722
vn 0.0000 -1.0000 -0.0000
vn 0.2468 0.7315 -0.6356
vn 0.2468 -0.7315 -0.6356
vn 0.6178 0.7377 -0.2722
vn 0.6178 -0.7377 -0.2722
vn -0.6158 0.7384 0.2748
vn -0.6158 -0.7384 0.2748
vn 0.6158 0.7384 0.2748
vn 0.6158 -0.7384 0.2748
vn -0.2441 0.7309 0.6374
vn -0.2441 -0.7309 0.6374
vn 0.2441 0.7309 0.6374
vn 0.2441 -0.7309 0.6374
usemtl default.002
s 1
f 1/1/1 2/2/2 3/3/3
f 4/4/4 5/5/5 1/6/1 3/7/3
f 4/8/4 6/9/6 5/10/5
f 2/2/2 7/11/2 8/12/7 3/3/3
f 9/13/8 4/4/4 3/7/3 8/14/7
f 6/9/6 4/8/4 9/15/8 10/16/6
f 7/11/2 11/17/9 8/12/7
f 12/18/10 9/13/8 8/14/7 11/19/9
f 9/15/8 12/20/10 10/16/6
f 13/21/11 14/22/2 2/2/2 1/1/1
f 5/23/5 15/24/12 13/25/11 1/26/1
f 15/27/12 5/10/5 6/9/6 16/28/6
f 14/22/2 17/29/2 7/11/2 2/2/2
f 16/28/6 6/9/6 10/16/6 18/30/6
f 17/29/2 19/31/13 11/17/9 7/11/2
f 20/32/14 12/18/10 11/19/9 19/33/13
f 18/30/6 10/16/6 12/20/10 20/34/14
f 13/21/11 21/35/15 14/22/2
f 15/24/12 22/36/16 21/37/15 13/25/11
f 16/28/6 22/38/16 15/27/12
f 21/35/15 23/39/17 17/29/2 14/22/2
f 22/36/16 24/40/18 23/41/17 21/37/15
f 22/38/16 16/28/6 18/30/6 24/42/18
f 23/39/17 19/31/13 17/29/2
f 24/40/18 20/43/14 19/44/13 23/41/17
f 18/30/6 20/34/14 24/42/18
