# Blender v2.80 (sub 72) OBJ File: 'rectangle.blend'
# www.blender.org
mtllib rectangle.mtl
o Rectangle
v 1.428712 1.418291 0.711449
v 1.428712 1.418291 -0.711449
v -1.428713 1.418291 -0.711449
v -1.428713 1.418290 0.711449
v 1.428713 -0.004606 -0.711449
v 1.428713 -0.004606 0.711449
v -1.428713 -0.004606 0.711449
v -1.428713 -0.004606 -0.711449
vt 0.745500 0.745500
vt 0.745500 0.990000
vt 0.254500 0.990000
vt 0.254500 0.745500
vt 0.745500 0.256499
vt 0.745500 0.500999
vt 0.254501 0.500999
vt 0.254501 0.256499
vt 0.254501 0.011999
vt 0.745500 0.011999
vt 0.990000 0.501000
vt 0.990000 0.745500
vt 0.010000 0.500999
vt 0.010000 0.745499
vn 0.5774 0.5774 0.5774
vn 0.5773 0.5774 -0.5774
vn -0.5774 0.5774 -0.5774
vn -0.5774 0.5774 0.5774
vn 0.5774 -0.5774 -0.5774
vn 0.5774 -0.5774 0.5774
vn -0.5774 -0.5774 0.5774
vn -0.5774 -0.5774 -0.5774
usemtl default.002
s 1
f 1/1/1 2/2/2 3/3/3 4/4/4
f 5/5/5 6/6/6 7/7/7 8/8/8
f 5/5/5 8/8/8 3/9/3 2/10/2
f 6/6/6 5/11/5 2/12/2 1/1/1
f 7/7/7 6/6/6 1/1/1 4/4/4
f 8/13/8 7/7/7 4/4/4 3/14/3
