# Blender v2.80 (sub 72) OBJ File: 'square.blend'
# www.blender.org
mtllib square.mtl
o Square
v 1.115377 2.216999 1.115377
v 1.115377 2.217000 -1.115377
v -1.115377 2.216999 -1.115377
v -1.115377 2.216998 1.115377
v 1.115377 -0.013755 -1.115378
v 1.115377 -0.013755 1.115377
v -1.115377 -0.013755 1.115377
v -1.115377 -0.013755 -1.115378
vn -0.0000 1.0000 0.0000
vn 0.0000 -1.0000 -0.0000
vn 0.0000 0.0000 -1.0000
vn 1.0000 0.0000 0.0000
vn 0.0000 -0.0000 1.0000
vn -1.0000 -0.0000 -0.0000
usemtl Default_OBJ
s off
f 1//1 2//1 3//1 4//1
f 5//2 6//2 7//2 8//2
f 5//3 8//3 3//3 2//3
f 6//4 5//4 2//4 1//4
f 7//5 6//5 1//5 4//5
f 8//6 7//6 4//6 3//6
