# Blender v2.80 (sub 72) OBJ File: 'triangle.blend'
# www.blender.org
mtllib triangle.mtl
o Triangle
v 1.298969 -0.006975 0.136355
v 0.000000 2.590963 0.136356
v -1.298969 -0.006975 0.136355
v -1.298969 -0.006975 -0.479427
v 1.298969 -0.006975 -0.479427
v 0.000000 2.590963 -0.479427
vt 0.602077 0.870924
vt 0.097165 0.882957
vt 0.390486 0.471808
vt 0.485088 0.421655
vt 0.696679 0.820771
vt 0.010000 0.820771
vt 0.303321 0.409622
vt 0.604628 0.977967
vt 0.099716 0.990000
vt 0.990000 0.409622
vn 0.6164 -0.3809 0.6892
vn 0.0000 0.6667 0.7453
vn -0.6164 -0.3810 0.6892
vn -0.6164 -0.3810 -0.6892
vn 0.6164 -0.3809 -0.6892
vn 0.0000 0.6667 -0.7453
usemtl defaultMat
s 1
f 1/1/1 2/2/2 3/3/3
f 4/4/4 5/5/5 1/1/1 3/3/3
f 6/6/6 4/7/4 3/3/3 2/2/2
f 5/8/5 6/9/6 2/2/2 1/1/1
f 4/4/4 6/10/6 5/5/5
